<svg width="24" height="24" viewBox="0 0 24 24" fill="none" xmlns="http://www.w3.org/2000/svg">
<path d="M12.8487 2.75149C12.6237 2.52652 12.3185 2.40015 12.0003 2.40015C11.6821 2.40015 11.3769 2.52652 11.1519 2.75149L2.75189 11.1515C2.5333 11.3778 2.41235 11.6809 2.41508 11.9956C2.41782 12.3102 2.54402 12.6112 2.76651 12.8337C2.989 13.0562 3.28998 13.1824 3.60461 13.1851C3.91925 13.1878 4.22237 13.0669 4.44869 12.8483L4.80029 12.4967V20.3999C4.80029 20.7181 4.92672 21.0234 5.15177 21.2484C5.37681 21.4735 5.68203 21.5999 6.00029 21.5999H8.40029C8.71855 21.5999 9.02378 21.4735 9.24882 21.2484C9.47386 21.0234 9.60029 20.7181 9.60029 20.3999V17.9999C9.60029 17.6816 9.72672 17.3764 9.95177 17.1514C10.1768 16.9263 10.482 16.7999 10.8003 16.7999H13.2003C13.5186 16.7999 13.8238 16.9263 14.0488 17.1514C14.2739 17.3764 14.4003 17.6816 14.4003 17.9999V20.3999C14.4003 20.7181 14.5267 21.0234 14.7518 21.2484C14.9768 21.4735 15.282 21.5999 15.6003 21.5999H18.0003C18.3186 21.5999 18.6238 21.4735 18.8488 21.2484C19.0739 21.0234 19.2003 20.7181 19.2003 20.3999V12.4967L19.5519 12.8483C19.7782 13.0669 20.0813 13.1878 20.396 13.1851C20.7106 13.1824 21.0116 13.0562 21.2341 12.8337C21.4566 12.6112 21.5828 12.3102 21.5855 11.9956C21.5882 11.6809 21.4673 11.3778 21.2487 11.1515L12.8487 2.75149Z" fill="#FFFFFF"/>
</svg>
